<?xml version="1.0" encoding="UTF-8" standalone="no"?>
<!DOCTYPE svg PUBLIC "-//W3C//DTD SVG 1.1//EN" "http://www.w3.org/Graphics/SVG/1.1/DTD/svg11.dtd">
<svg width="100%" height="100%" viewBox="0 0 62 62" version="1.1" xmlns="http://www.w3.org/2000/svg" xmlns:xlink="http://www.w3.org/1999/xlink" xml:space="preserve" xmlns:serif="http://www.serif.com/" style="fill-rule:evenodd;clip-rule:evenodd;stroke-linejoin:round;stroke-miterlimit:2;">
    <g transform="matrix(0.849265,0,0,0.849265,4.94524,4.79964)">
        <path d="M51.22,13.33C51.59,13 51.33,12.63 51.05,12.33L50.87,12.13L50,12.85L50.18,13.05C50.48,13.36 50.83,13.67 51.22,13.33Z" style="fill:white;fill-rule:nonzero;"/>
        <path d="M28.34,31.74L27.13,31.86C26.44,31.93 25.84,32 25.29,32.01L23.68,32.01L23.68,42.65L24.76,42.65C25.76,42.65 26.44,42.56 27.09,42.5C27.74,42.44 28.41,42.38 29.28,42.38C29.537,42.378 29.791,42.426 30.03,42.52L30.03,31.91C29.931,31.861 29.827,31.824 29.72,31.8C29.265,31.716 28.801,31.696 28.34,31.74ZM26.77,33.36C27.04,33.36 27.36,33.36 27.77,33.28L28.36,33.22L28.75,33.22L28.75,34L27.81,34C27.42,34 27.09,34.08 26.81,34.08L25,34.08L25,33.33L26.77,33.36ZM28.69,40.85L28.4,40.85L27.82,40.91C27.43,40.91 27.1,40.99 26.82,40.99L24.98,40.99L24.98,40.31L26.78,40.31C27.05,40.31 27.37,40.31 27.78,40.23L28.37,40.17L28.76,40.17L28.76,40.92L28.69,40.85ZM28.69,38.55L28.39,38.55L27.76,38.61C27.39,38.61 27.07,38.68 26.76,38.69L24.98,38.69L24.98,38L26.79,38C27.05,38 27.35,38 27.7,37.93L28.33,37.87L28.72,37.87L28.69,38.55ZM28.69,36.25L28.4,36.25L27.81,36.31C27.43,36.31 27.09,36.39 26.81,36.39L25.01,36.39L25.01,35.64L26.82,35.64C27.09,35.64 27.41,35.64 27.82,35.56L28.43,35.5L28.81,35.5L28.69,36.25Z" style="fill:white;fill-rule:nonzero;"/>
        <path d="M30.68,1.43L30.67,1.43C14.624,1.43 1.42,14.634 1.42,30.68C1.42,46.726 14.624,59.93 30.67,59.93C46.716,59.93 59.92,46.726 59.92,30.68C59.904,14.644 46.716,1.452 30.68,1.43ZM58.68,28.43L57,29.49L58.79,30.37L58.79,31.24L56.22,29.92L54.63,30L54.63,29.19L56.26,29.1L58.67,27.48L58.68,28.43ZM57.56,22.49L58.32,25.55L57.69,25.71L57.4,24.57L54,25.4L53.81,24.6L57.19,23.77L56.91,22.64L57.56,22.49ZM56.81,20.49L53,22L52.69,21.24L56.51,19.68L56.81,20.49ZM53.13,15.89C53.327,15.768 53.555,15.703 53.787,15.703C54.29,15.703 54.746,16.006 54.94,16.47C55.111,16.752 55.236,17.059 55.31,17.38L54.69,17.66C54.655,17.378 54.563,17.106 54.42,16.86C54.33,16.652 54.124,16.517 53.897,16.517C53.792,16.517 53.689,16.545 53.6,16.6C53,16.93 54.14,18.31 53,19C52.806,19.111 52.586,19.169 52.362,19.169C51.821,19.169 51.335,18.828 51.15,18.32C50.966,18.009 50.831,17.672 50.75,17.32L51.39,17C51.398,17.322 51.484,17.638 51.64,17.92C51.773,18.242 52.146,18.4 52.47,18.27C53.14,17.91 52,16.55 53.13,15.85L53.13,15.89ZM51.41,11.78C51.99,12.44 52.7,13.2 51.84,13.97C51.471,14.278 50.929,14.278 50.56,13.97C50.671,14.158 50.671,14.392 50.56,14.58L49.78,16.14L49.18,15.45L49.83,14.23C50.006,14.024 49.984,13.709 49.78,13.53L49.61,13.33L48.32,14.46L47.78,13.84L50.89,11.12L51.41,11.78ZM48.92,9.29L48.52,9.8L47.27,8.8L46.64,9.6L47.78,10.5L47.38,11.01L46.24,10.12L45.52,11.03L46.78,12.03L46.38,12.55L44.48,11.06L47,7.81L48.92,9.29ZM41.67,4.76L42.45,5.16L41.92,8.52L44.31,6.1L45,6.46L41.95,9.53L41.05,9.08L41.67,4.76ZM38.76,3.76L39.54,4L38.3,8L37.52,7.75L38.76,3.76ZM32.91,2.66L33.91,2.8L35,6.06L35.45,3L36.23,3.1L35.67,7.2L34.67,7.07L33.55,3.8L33.13,6.86L32.35,6.76L32.91,2.66ZM27.6,2.8L27.79,5.18C27.85,5.88 28.11,6.32 28.73,6.27C29.35,6.22 29.53,5.74 29.48,5.04L29.28,2.66L30.1,2.59L30.32,5.22C30.338,5.311 30.347,5.403 30.347,5.496C30.347,6.28 29.701,6.926 28.917,6.926C28.874,6.926 28.832,6.924 28.79,6.92C28.672,6.951 28.551,6.966 28.43,6.966C27.645,6.966 27,6.321 27,5.536L27,5.5L26.78,2.87L27.6,2.8ZM21,4.38L22.18,7.65L23.67,7.11L23.89,7.72L21.63,8.54L20.2,4.66L21,4.38ZM16.75,6.38L18.46,9.38L19.84,8.6L20.16,9.17L18,10.37L16,6.77L16.75,6.38ZM13.85,8.25L14.26,8.76L13,9.73L13.65,10.52L14.78,9.6L15.19,10.11L14,11L14.73,11.9L15.97,10.9L16.38,11.41L14.55,13L11.94,9.74L13.85,8.25ZM8.45,13.46L11.82,14.24L9.44,12.24L9.94,11.64L13.12,14.28L12.48,15.05L9.11,14.28L11.49,16.28L10.99,16.88L7.8,14.24L8.45,13.46ZM5.45,18.18C5.86,17.41 6.32,16.47 7.34,17.01C7.774,17.228 7.971,17.749 7.79,18.2C7.931,18.038 8.148,17.961 8.36,18L10.09,18.18L9.66,19L8.29,18.82C8.032,18.733 7.748,18.866 7.65,19.12L7.53,19.35L9,20.17L8.61,20.89L5,19L5.45,18.18ZM3.39,23.18C3.607,22.334 4.376,21.737 5.25,21.737C5.508,21.737 5.763,21.789 6,21.89C6.918,22.088 7.579,22.906 7.579,23.845C7.579,24.942 6.676,25.845 5.579,25.845C5.351,25.845 5.125,25.806 4.91,25.73C3.973,25.602 3.267,24.793 3.267,23.847C3.267,23.637 3.302,23.429 3.37,23.23L3.39,23.18ZM2.39,28.35C2.413,28.036 2.49,27.727 2.62,27.44L3.31,27.54C3.14,27.799 3.047,28.1 3.04,28.41C3.038,28.44 3.037,28.47 3.037,28.501C3.037,29.252 3.655,29.871 4.407,29.871C4.421,29.871 4.436,29.87 4.45,29.87C4.517,29.88 4.585,29.885 4.653,29.885C5.358,29.885 5.951,29.333 6,28.63C6.021,28.325 5.98,28.019 5.88,27.73L6.6,27.73C6.659,28.04 6.683,28.355 6.67,28.67C6.672,28.707 6.673,28.744 6.673,28.78C6.673,29.878 5.77,30.78 4.673,30.78C4.605,30.78 4.537,30.777 4.47,30.77C4.435,30.772 4.4,30.773 4.365,30.773C3.268,30.773 2.365,29.87 2.365,28.773C2.365,28.648 2.377,28.523 2.4,28.4L2.39,28.35ZM3.26,37.35L7.26,36.2L7.9,38.4L7.27,38.58L6.84,37.22L5.84,37.5L6.22,38.84L5.62,39L5.24,37.68L3.5,38.18L3.26,37.35ZM5.33,43.16C5.165,42.869 5.078,42.541 5.078,42.207C5.078,41.404 5.579,40.682 6.33,40.4C6.638,40.203 6.996,40.099 7.362,40.099C8.132,40.099 8.83,40.562 9.13,41.27C9.292,41.559 9.377,41.884 9.377,42.215C9.377,43.016 8.879,43.737 8.13,44.02C7.821,44.213 7.465,44.316 7.101,44.316C6.346,44.316 5.657,43.875 5.34,43.19L5.33,43.16ZM8.68,48.46C8.368,48.187 8.189,47.792 8.189,47.377C8.189,46.884 8.443,46.424 8.86,46.16L10.93,44.52L11.44,45.17L9.58,46.69C9.03,47.13 8.81,47.59 9.2,48.08C9.59,48.57 10.09,48.47 10.64,48.03L12.51,46.55L13,47.2L11,48.83C10.729,49.109 10.356,49.266 9.968,49.266C9.431,49.266 8.937,48.966 8.69,48.49L8.68,48.46ZM13.54,53.19L14.28,49.8L12.28,52.19L11.67,51.69L14.29,48.5L15.08,49.14L14.34,52.53L16.34,50.14L16.95,50.64L14.33,53.84L13.54,53.19ZM20.71,55.07C19.97,56.53 18.79,56.41 17.71,55.84L16.71,55.34L18.56,51.65L19.56,52.15C20.65,52.75 21.46,53.63 20.72,55.1L20.71,55.07ZM25.47,55.07L23.92,54.66L23.66,55.66L25.08,56L24.91,56.63L23.49,56.25L23.19,57.37L24.75,57.79L24.58,58.42L22.22,57.79L23.28,53.79L25.63,54.42L25.47,55.07ZM28.35,58.96L27.23,58.9L27.46,54.77L28.58,54.83C29.84,54.9 30.93,55.39 30.84,57.03C30.75,58.67 29.61,59 28.35,58.94L28.35,58.96ZM37.5,58.17L37,57.3L35.37,57.65L35.22,58.65L34.38,58.83L35,54.45L35.91,54.26L38.4,58L37.5,58.17ZM39.6,57.51L39.32,56.73L40.1,56.45L40.38,57.23L39.6,57.51ZM43.32,55.91L42.32,56.45L40.32,52.82L41.32,52.28C42.43,51.67 43.61,51.52 44.4,52.96C45.19,54.4 44.44,55.29 43.33,55.89L43.32,55.91ZM46.1,54.26L45.63,53.58L46.31,53.11L46.78,53.79L46.1,54.26ZM30.68,53.73C18.063,53.73 7.68,43.347 7.68,30.73C7.68,18.113 18.063,7.73 30.68,7.73C43.297,7.73 53.68,18.113 53.68,30.73C53.636,43.329 43.279,53.682 30.68,53.72L30.68,53.73ZM50.17,50.93L47.93,48.66L47.83,49.55L47.16,49.46L47.34,47.92L47.86,47.41L50.76,50.35L50.17,50.93ZM53.24,47.5C53.034,47.921 52.604,48.189 52.135,48.189C51.879,48.189 51.629,48.109 51.42,47.96C51.037,47.684 50.868,47.193 51,46.74C50.644,46.979 50.176,46.979 49.82,46.74C49.541,46.528 49.376,46.198 49.376,45.847C49.376,45.543 49.501,45.251 49.72,45.04C49.91,44.632 50.321,44.371 50.771,44.371C50.97,44.371 51.166,44.422 51.34,44.52C51.689,44.785 51.844,45.237 51.73,45.66C52.131,45.377 52.669,45.377 53.07,45.66C53.397,45.883 53.592,46.255 53.592,46.65C53.592,46.969 53.466,47.275 53.24,47.5ZM55.87,43.21C55.36,44.21 54.39,44.04 53.52,43.6C52.65,43.16 51.58,42.22 52.18,41C52.312,40.735 52.487,40.495 52.7,40.29L53.25,40.69C53.054,40.844 52.894,41.039 52.78,41.26C52.735,41.383 52.712,41.513 52.712,41.644C52.712,42.129 53.028,42.562 53.49,42.71C53.327,42.432 53.327,42.088 53.49,41.81C53.667,41.386 54.083,41.108 54.542,41.108C54.761,41.108 54.976,41.171 55.16,41.29C55.694,41.464 56.058,41.965 56.058,42.526C56.058,42.764 55.993,42.997 55.87,43.2L55.87,43.21ZM57.64,38.79C57.543,39.1 57.412,39.398 57.25,39.68L56.55,39.45C56.752,39.231 56.906,38.972 57,38.69C57.046,38.589 57.07,38.479 57.07,38.368C57.07,38.04 56.861,37.746 56.55,37.64C56.481,37.621 56.409,37.611 56.338,37.611C55.927,37.611 55.582,37.931 55.55,38.34C55.478,38.58 55.444,38.83 55.45,39.08L53.33,38.41L54,36.14L54.59,36.31L54.14,37.83L55,38.1C55.011,37.975 55.034,37.851 55.07,37.73C55.187,37.161 55.693,36.749 56.275,36.749C56.434,36.749 56.592,36.78 56.74,36.84C57.345,37.011 57.766,37.568 57.766,38.197C57.766,38.398 57.723,38.597 57.64,38.78L57.64,38.79Z" style="fill:white;fill-rule:nonzero;"/>
        <path d="M17.46,34.83C17.46,43.27 27,48.76 30,50.3L30,44.4C29.892,44.311 29.795,44.211 29.71,44.1C29.623,43.929 29.441,43.827 29.25,43.84C28.565,43.841 27.881,43.878 27.2,43.95C26.55,44.01 25.82,44.08 24.77,44.1C23.72,44.12 22.93,44.1 22.9,44.1L22.22,44.1L22.22,41.8L20.83,41.8L20.83,40L22.24,40L22.24,38.21L20.83,38.21L20.83,36.49L22.24,36.49L22.24,34.24L20.83,34.24L20.83,32.53L22.24,32.53L22.24,30.61L25.24,30.61C25.73,30.61 26.3,30.54 26.96,30.47L28.18,30.35C28.791,30.288 29.407,30.314 30.01,30.43L30.01,28.6L17.46,28.6L17.46,34.83Z" style="fill:white;fill-rule:nonzero;"/>
        <path d="M5.1,24.91C5.289,25.028 5.507,25.09 5.729,25.09C6.382,25.09 6.919,24.553 6.919,23.9C6.919,23.247 6.383,22.71 5.73,22.71C5.561,22.63 5.375,22.589 5.188,22.589C4.661,22.589 4.186,22.917 4,23.41C3.985,23.489 3.977,23.569 3.977,23.649C3.977,24.29 4.463,24.836 5.1,24.91Z" style="fill:white;fill-rule:nonzero;"/>
        <path d="M6.76,41.21C6.215,41.365 5.837,41.866 5.837,42.432C5.837,42.596 5.868,42.758 5.93,42.91C6.158,43.299 6.576,43.538 7.026,43.538C7.297,43.538 7.562,43.451 7.78,43.29C8.314,43.128 8.682,42.633 8.682,42.074C8.682,41.912 8.651,41.751 8.59,41.6C8.359,41.215 7.942,40.979 7.493,40.979C7.231,40.979 6.975,41.06 6.76,41.21Z" style="fill:white;fill-rule:nonzero;"/>
        <path d="M19.37,52.83L19,52.63L17.73,55.16L18.14,55.37C18.292,55.423 18.451,55.451 18.612,55.451C19.391,55.451 20.032,54.81 20.032,54.031C20.032,53.544 19.782,53.09 19.37,52.83Z" style="fill:white;fill-rule:nonzero;"/>
        <path d="M7,17.79C6.56,17.56 6.31,17.94 6.12,18.3L6,18.54L7,19.06L7.13,18.82C7.27,18.47 7.43,18 7,17.79Z" style="fill:white;fill-rule:nonzero;"/>
        <path d="M41.81,52.76L41.4,53L42.75,55.49L43.15,55.27C43.613,55.023 43.903,54.539 43.903,54.015C43.903,53.235 43.26,52.592 42.48,52.592C42.246,52.592 42.016,52.65 41.81,52.76Z" style="fill:white;fill-rule:nonzero;"/>
        <path d="M35.65,55.17L35.42,56.96L36.6,56.71L35.66,55.17L35.65,55.17Z" style="fill:white;fill-rule:nonzero;"/>
        <path d="M28.71,55.47L28.25,55.47L28.09,58.29L28.55,58.29C29.303,58.254 29.902,57.625 29.902,56.872C29.902,56.178 29.394,55.581 28.71,55.47Z" style="fill:white;fill-rule:nonzero;"/>
        <path d="M50.3,45.31C50.194,45.412 50.133,45.553 50.133,45.7C50.133,45.847 50.194,45.988 50.3,46.09C50.598,46.231 50.954,46.171 51.19,45.94C51.268,45.684 51.194,45.405 51,45.22C50.914,45.147 50.804,45.108 50.691,45.108C50.536,45.108 50.39,45.183 50.3,45.31Z" style="fill:white;fill-rule:nonzero;"/>
        <path d="M54.9,42.11C54.786,42.023 54.647,41.976 54.504,41.976C54.285,41.976 54.08,42.086 53.96,42.27C53.932,42.343 53.918,42.42 53.918,42.497C53.918,42.793 54.123,43.052 54.41,43.12C54.517,43.2 54.647,43.243 54.781,43.243C55.004,43.243 55.21,43.123 55.32,42.93C55.345,42.861 55.357,42.789 55.357,42.716C55.357,42.435 55.17,42.187 54.9,42.11Z" style="fill:white;fill-rule:nonzero;"/>
        <path d="M43.88,16.58L17.46,16.58L17.46,27.17L43.88,27.17L43.88,16.58ZM28.54,23C28.46,23.789 27.985,24.486 27.28,24.85C26.28,25.53 24.65,26.41 24.58,26.45L24.22,26.64L23.87,26.44C23.81,26.44 22.31,25.52 21.3,24.85C20.598,24.475 20.115,23.787 20,23L20,17.29L28.57,17.29L28.57,18C28.55,22.88 28.54,23 28.54,23ZM41.79,23C41.708,23.789 41.234,24.485 40.53,24.85C39.53,25.53 37.9,26.41 37.83,26.45L37.48,26.64L37.13,26.44C37.07,26.44 35.57,25.53 34.57,24.85C33.849,24.487 33.346,23.797 33.22,23C33.094,22.203 33.22,22.83 33.22,18L33.22,17.26L41.79,17.26L41.79,18C41.79,21.2 41.79,22.9 41.78,23L41.79,23Z" style="fill:white;fill-rule:nonzero;"/>
        <path d="M51.66,46.46C51.557,46.759 51.653,47.092 51.9,47.29C52.001,47.361 52.122,47.4 52.246,47.4C52.443,47.4 52.628,47.302 52.74,47.14C52.828,47.041 52.877,46.913 52.877,46.78C52.877,46.605 52.792,46.441 52.65,46.34C52.332,46.152 51.924,46.202 51.66,46.46Z" style="fill:white;fill-rule:nonzero;"/>
        <path d="M34.64,18.69L34.64,21L37,19.27L37.4,18.98L40.32,20.93L40.32,18.69L34.64,18.69Z" style="fill:white;fill-rule:nonzero;"/>
        <path d="M30.68,9.06C18.82,9.06 9.06,18.82 9.06,30.68C9.06,42.54 18.82,52.3 30.68,52.3C42.54,52.3 52.3,42.54 52.3,30.68C52.289,18.824 42.536,9.071 30.68,9.06ZM38.09,47.66C35.91,49.407 33.53,50.887 31,52.07L30.71,52.2L30.43,52.08C27.875,50.91 25.477,49.425 23.29,47.66C18.53,43.82 16,39.39 16,34.83L16,15.15L45.31,15.15L45.31,35.15C45.31,39.55 42.82,43.87 38.09,47.66Z" style="fill:white;fill-rule:nonzero;"/>
        <path d="M31.22,28.6L31.22,30.42L31.33,30.42C31.923,30.307 32.529,30.28 33.13,30.34L34.37,30.47C35.03,30.54 35.6,30.6 36.09,30.61L39.09,30.61L39.09,32.87L40.35,32.87L40.35,34.58L39.1,34.58L39.1,36.83L40.44,36.83L40.44,38.54L39.1,38.54L39.1,40.37L40.36,40.37L40.36,42.08L39.1,42.08L39.1,44.08L36.55,44.08C35.52,44.08 34.77,44 34.12,44C33.439,43.928 32.755,43.891 32.07,43.89C31.853,43.88 31.648,43.992 31.54,44.18C31.445,44.295 31.338,44.399 31.22,44.49L31.22,50.42C34.13,48.95 43.88,43.42 43.88,35.23L43.88,28.65L31.22,28.65L31.22,28.6Z" style="fill:white;fill-rule:nonzero;"/>
        <path d="M37.47,20.73L34.65,22.73L34.65,22.88C34.782,23.208 35.032,23.475 35.35,23.63C36,24.12 37,24.69 37.49,25C38.02,24.7 39.04,24.13 39.72,23.67C40.006,23.518 40.229,23.27 40.35,22.97L40.35,22.65L37.47,20.73Z" style="fill:white;fill-rule:nonzero;"/>
        <path d="M34.22,31.87L33,31.74C32.553,31.695 32.102,31.712 31.66,31.79C31.51,31.819 31.368,31.877 31.24,31.96L31.24,42.58C31.507,42.458 31.797,42.397 32.09,42.4C32.96,42.4 33.6,42.46 34.28,42.52C34.96,42.58 35.61,42.64 36.61,42.67L37.69,42.67L37.69,32.03L36.08,32.03C35.51,32 34.91,31.94 34.22,31.87ZM36.32,41.09L34.52,41.09C34.23,41.09 33.91,41.09 33.52,41.01L32.88,40.95L32.59,40.95L32.59,40.2L33,40.2L33.65,40.27C34,40.27 34.3,40.34 34.56,40.35L36.36,40.35L36.32,41.09ZM32.56,37.83L32.97,37.83L33.62,37.89C33.97,37.89 34.27,37.96 34.53,37.96L36.33,37.96L36.33,38.71L34.48,38.71C34.19,38.71 33.88,38.71 33.48,38.63L32.84,38.57L32.6,38.57L32.56,37.83ZM36.32,36.48L34.52,36.48C34.23,36.48 33.9,36.48 33.52,36.4L32.9,36.34L32.6,36.34L32.6,35.58L33.01,35.58L33.64,35.64C34,35.64 34.31,35.71 34.57,35.72L36.37,35.72L36.32,36.48ZM36.32,34.18L34.51,34.18C34.22,34.18 33.89,34.18 33.51,34.1L32.91,34L32.59,34L32.59,33.25L33,33.25L33.62,33.31C33.98,33.31 34.29,33.38 34.55,33.39L36.35,33.44L36.35,34.19L36.32,34.18Z" style="fill:white;fill-rule:nonzero;"/>
        <rect x="21.4" y="18.72" width="5.71" height="1.28" style="fill:white;"/>
        <path d="M21.4,21.4L21.4,22.94C21.529,23.27 21.78,23.538 22.1,23.69C22.79,24.15 23.74,24.69 24.24,25.02C24.77,24.73 25.79,24.15 26.47,23.69C26.756,23.538 26.979,23.29 27.1,22.99L27.1,21.4L21.4,21.4Z" style="fill:white;fill-rule:nonzero;"/>
    </g>
    <g transform="matrix(0.849265,0,0,0.849265,4.94524,4.79964)">
        <path d="M30.68,0C13.849,0 -0,13.849 -0,30.68C-0,47.511 13.849,61.36 30.68,61.36C47.511,61.36 61.36,47.511 61.36,30.68C61.344,13.856 47.504,0.016 30.68,0ZM30.68,59.92L30.67,59.92C14.624,59.92 1.42,46.716 1.42,30.67C1.42,14.624 14.624,1.42 30.67,1.42C46.716,1.42 59.92,14.624 59.92,30.67L59.92,30.68C59.898,46.712 46.712,59.898 30.68,59.92Z" style="fill:rgb(179,32,37);fill-rule:nonzero;"/>
        <path d="M30.68,7.64C18.063,7.64 7.68,18.023 7.68,30.64C7.68,43.257 18.063,53.64 30.68,53.64C43.297,53.64 53.68,43.257 53.68,30.64C53.642,18.037 43.283,7.678 30.68,7.64ZM30.68,52.3C18.82,52.3 9.06,42.54 9.06,30.68C9.06,18.82 18.82,9.06 30.68,9.06C42.54,9.06 52.3,18.82 52.3,30.68C52.289,42.536 42.536,52.289 30.68,52.3Z" style="fill:rgb(179,32,37);fill-rule:nonzero;"/>
        <path d="M26.79,34.12C27.09,34.12 27.42,34.12 27.79,34.04L28.4,34L28.7,34L28.7,33.21L28.31,33.21L27.72,33.27C27.35,33.27 27.03,33.34 26.72,33.35L24.91,33.35L24.91,34.1L26.79,34.12Z" style="fill:rgb(179,32,37);fill-rule:nonzero;"/>
        <path d="M27.73,40.18C27.36,40.18 27.04,40.25 26.73,40.26L24.97,40.26L24.97,41.01L26.78,41.01C27.08,41.01 27.41,41.01 27.78,40.93L28.36,40.87L28.66,40.87L28.66,40.11L28.27,40.11L27.73,40.18Z" style="fill:rgb(179,32,37);fill-rule:nonzero;"/>
        <path d="M27.69,37.89C27.34,37.89 27.03,37.96 26.78,37.96L26.58,37.96L25,38L25,38.75L26.81,38.75C27.1,38.75 27.42,38.75 27.81,38.67L28.44,38.61L28.74,38.61L28.74,37.86L28.32,37.86L27.69,37.89Z" style="fill:rgb(179,32,37);fill-rule:nonzero;"/>
        <path d="M27.72,35.59C27.35,35.59 27.03,35.66 26.72,35.67L24.91,35.67L24.91,36.42L26.71,36.42C27.01,36.42 27.34,36.42 27.71,36.34L28.3,36.28L28.6,36.28L28.6,35.53L28.33,35.53L27.72,35.59Z" style="fill:rgb(179,32,37);fill-rule:nonzero;"/>
        <path d="M32.91,38.59L33.55,38.65C33.92,38.65 34.23,38.72 34.55,38.73L36.4,38.73L36.4,38L34.6,38C34.34,38 34.04,38 33.69,37.93L33,37.84L32.59,37.84L32.59,38.59L32.91,38.59Z" style="fill:rgb(179,32,37);fill-rule:nonzero;"/>
        <path d="M33.6,33.31L33,33.24L32.57,33.24L32.57,33.99L32.89,33.99L33.51,34.05C33.89,34.05 34.21,34.13 34.51,34.13L36.32,34.13L36.32,33.43L34.52,33.38C34.27,33.38 34,33.35 33.6,33.31Z" style="fill:rgb(179,32,37);fill-rule:nonzero;"/>
        <path d="M33.62,40.21L33,40.14L32.59,40.14L32.59,40.89L32.9,40.89L33.54,41C33.91,41 34.22,41.07 34.54,41.08L36.34,41.08L36.34,40.33L34.54,40.33C34.28,40.28 34,40.25 33.62,40.21Z" style="fill:rgb(179,32,37);fill-rule:nonzero;"/>
        <path d="M44.59,15.15L16,15.15L16,34.83C16,39.39 18.5,43.83 23.24,47.66C25.427,49.425 27.825,50.91 30.38,52.08L30.66,52.2L31,52.07C33.541,50.889 35.931,49.409 38.12,47.66C42.85,43.87 45.34,39.55 45.34,35.17L45.34,15.17L44.59,15.17L44.59,15.15ZM30,42.55C29.761,42.456 29.507,42.408 29.25,42.41C28.38,42.41 27.74,42.47 27.06,42.53C26.38,42.59 25.73,42.65 24.73,42.68L23.67,42.68L23.67,32.04L25.28,32.04C25.83,32.04 26.43,31.96 27.12,31.89L28.33,31.77C28.788,31.706 29.252,31.706 29.71,31.77C29.817,31.794 29.921,31.831 30.02,31.88L30.02,42.55L30,42.55ZM30,30.4C29.397,30.284 28.781,30.258 28.17,30.32L27,30.44C26.34,30.51 25.76,30.57 25.28,30.58L22.28,30.58L22.28,32.5L20.83,32.5L20.83,34.21L22.24,34.21L22.24,36.46L20.83,36.46L20.83,38.17L22.24,38.17L22.24,40L20.83,40L20.83,41.71L22.24,41.71L22.24,44L27.22,44C27.901,43.928 28.585,43.891 29.27,43.89C29.461,43.877 29.643,43.979 29.73,44.15C29.815,44.261 29.912,44.361 30.02,44.45L30.02,50.35C26.96,48.8 17.45,43.35 17.45,34.87L17.45,28.64L30,28.64L30,30.43L30,30.4ZM17.46,27.19L17.46,16.59L43.88,16.59L43.88,27.19L17.46,27.19ZM37.66,42.67L36.58,42.67C35.58,42.67 34.91,42.58 34.25,42.52C33.59,42.46 32.93,42.4 32.06,42.4C31.767,42.397 31.477,42.458 31.21,42.58L31.21,32C31.338,31.917 31.48,31.859 31.63,31.83C32.08,31.736 32.541,31.705 33,31.74L34.24,31.87C34.93,31.94 35.53,32.01 36.07,32.02L37.68,32.02C37.66,33.21 37.66,41.52 37.66,42.67ZM31.21,50.36L31.21,44.44C31.328,44.349 31.435,44.245 31.53,44.13C31.638,43.942 31.843,43.83 32.06,43.84C32.745,43.841 33.429,43.878 34.11,43.95C34.76,44.01 35.49,44.08 36.54,44.1C37.59,44.12 38.38,44.1 38.41,44.1L39.09,44.1L39.09,42.1L40.35,42.1L40.35,40.37L39.1,40.37L39.1,38.54L40.44,38.54L40.44,36.83L39.1,36.83L39.1,34.58L40.36,34.58L40.36,32.87L39.1,32.87L39.1,30.61L36.1,30.61C35.62,30.61 35.05,30.54 34.38,30.47L33.14,30.34C32.539,30.28 31.933,30.307 31.34,30.42L31.23,30.42L31.23,28.6L43.88,28.6L43.88,35.18C43.88,43.35 34.13,48.89 31.22,50.36L31.21,50.36Z" style="fill:rgb(179,32,37);fill-rule:nonzero;"/>
        <path d="M28.54,17.29L20,17.29L20,23C20.122,23.793 20.617,24.482 21.33,24.85C22.33,25.52 23.83,26.4 23.9,26.44L24.25,26.64L24.61,26.45C24.68,26.45 26.29,25.53 27.31,24.85C28.003,24.479 28.466,23.783 28.54,23C28.614,22.217 28.54,22.84 28.54,18L28.54,17.29ZM21.4,18.72L27.11,18.72L27.11,19.97L21.4,19.97L21.4,18.72ZM27.11,22.94L27.11,23C26.989,23.3 26.766,23.548 26.48,23.7C25.79,24.16 24.78,24.7 24.25,25.03C23.75,24.73 22.79,24.16 22.11,23.7C21.79,23.548 21.539,23.28 21.41,22.95L21.41,21.41L27.12,21.41L27.12,21.65C27.11,22.35 27.11,22.86 27.11,22.94Z" style="fill:rgb(179,32,37);fill-rule:nonzero;"/>
        <path d="M33.61,35.61L33,35.54L32.59,35.54L32.59,36.3L32.9,36.3L33.52,36.36C33.89,36.36 34.22,36.43 34.52,36.44L36.32,36.44L36.32,35.69L34.52,35.69C34.27,35.68 34,35.65 33.61,35.61Z" style="fill:rgb(179,32,37);fill-rule:nonzero;"/>
        <path d="M41.78,17.26L33.21,17.26L33.21,23C33.338,23.786 33.832,24.466 34.54,24.83C35.54,25.5 37.04,26.38 37.1,26.42L37.45,26.62L37.8,26.43C37.87,26.43 39.49,25.51 40.5,24.83C41.206,24.474 41.687,23.785 41.78,23L41.78,17.26ZM40.35,22.91L40.35,23C40.229,23.3 40.006,23.548 39.72,23.7C39.03,24.16 38.02,24.7 37.49,25.03C36.99,24.73 36.04,24.16 35.35,23.7C35.032,23.545 34.782,23.278 34.65,22.95C34.518,22.622 34.65,22.87 34.65,22.8L37.47,20.8L40.35,22.72L40.35,22.98L40.35,22.91ZM37.44,19L37.04,19.29L34.64,21L34.64,18.69L40.35,18.69L40.35,20.93L37.44,19Z" style="fill:rgb(179,32,37);fill-rule:nonzero;"/>
        <path d="M6.67,28.67C6.683,28.355 6.659,28.04 6.6,27.73L5.9,27.73C6,28.019 6.041,28.325 6.02,28.63C5.997,29.354 5.395,29.937 4.671,29.937C4.6,29.937 4.53,29.931 4.46,29.92C4.446,29.92 4.431,29.921 4.417,29.921C3.665,29.921 3.047,29.302 3.047,28.551C3.047,28.52 3.048,28.49 3.05,28.46C3.057,28.15 3.15,27.849 3.32,27.59L2.63,27.49C2.5,27.777 2.423,28.086 2.4,28.4C2.377,28.523 2.365,28.648 2.365,28.773C2.365,29.87 3.268,30.773 4.365,30.773C4.4,30.773 4.435,30.772 4.47,30.77C4.537,30.777 4.605,30.78 4.673,30.78C5.77,30.78 6.673,29.878 6.673,28.78C6.673,28.744 6.672,28.707 6.67,28.67Z" style="fill:rgb(179,32,37);fill-rule:nonzero;"/>
        <path d="M4.87,25.73C5.053,25.784 5.244,25.811 5.435,25.811C6.533,25.811 7.436,24.908 7.436,23.81C7.436,22.925 6.849,22.14 6,21.89C5.771,21.797 5.526,21.749 5.279,21.749C4.391,21.749 3.613,22.366 3.41,23.23C3.339,23.432 3.303,23.645 3.303,23.859C3.303,24.777 3.967,25.569 4.87,25.73ZM4,23.41C4.186,22.917 4.661,22.589 5.188,22.589C5.375,22.589 5.561,22.63 5.73,22.71C6.383,22.71 6.919,23.247 6.919,23.9C6.919,24.553 6.382,25.09 5.729,25.09C5.507,25.09 5.289,25.028 5.1,24.91C4.463,24.836 3.977,24.29 3.977,23.649C3.977,23.569 3.985,23.489 4,23.41Z" style="fill:rgb(179,32,37);fill-rule:nonzero;"/>
        <path d="M9,20.17L7.48,19.36L7.6,19.13C7.698,18.876 7.982,18.743 8.24,18.83L9.66,19L10.09,18.19L8.36,18C8.149,17.953 7.927,18.021 7.78,18.18C7.954,17.729 7.753,17.214 7.32,17C6.32,16.46 5.84,17.4 5.43,18.17L5,19L8.66,20.9L9,20.17ZM7,18.82L7,19.06L6,18.54L6.1,18.3C6.29,17.94 6.54,17.56 6.98,17.79C7.42,18.02 7.27,18.47 7.08,18.83L7,18.82Z" style="fill:rgb(179,32,37);fill-rule:nonzero;"/>
        <path d="M11.48,16.27L9.11,14.3L9.11,14.29L12.49,15.06L13.13,14.29L9.94,11.65L9.45,12.26L11.82,14.23L11.82,14.24L8.45,13.46L7.8,14.23L10.98,16.87L11.48,16.27Z" style="fill:rgb(179,32,37);fill-rule:nonzero;"/>
        <path d="M16.43,11.43L16.02,10.92L14.78,11.93L14.04,11.03L15.17,10.11L14.76,9.61L13.63,10.53L12.99,9.73L14.22,8.73L13.81,8.23L11.95,9.74L14.55,12.95L16.43,11.43Z" style="fill:rgb(179,32,37);fill-rule:nonzero;"/>
        <path d="M20.11,9.19L19.8,8.62L18.42,9.4L16.71,6.36L16,6.76L18.02,10.37L20.11,9.19Z" style="fill:rgb(179,32,37);fill-rule:nonzero;"/>
        <path d="M23.86,7.73L23.64,7.12L22.15,7.65L20.96,4.38L20.2,4.66L21.6,8.55L23.86,7.73Z" style="fill:rgb(179,32,37);fill-rule:nonzero;"/>
        <path d="M28.79,6.92C28.832,6.924 28.874,6.926 28.917,6.926C29.701,6.926 30.347,6.28 30.347,5.496C30.347,5.403 30.338,5.311 30.32,5.22L30.1,2.59L29.28,2.66L29.48,5C29.54,5.7 29.35,6.18 28.73,6.23C28.11,6.28 27.84,5.84 27.79,5.14L27.6,2.8L26.78,2.87L27,5.5L27,5.536C27,6.321 27.645,6.966 28.43,6.966C28.551,6.966 28.672,6.951 28.79,6.92Z" style="fill:rgb(179,32,37);fill-rule:nonzero;"/>
        <path d="M33.54,3.8L33.55,3.8L34.68,7.07L35.67,7.2L36.23,3.1L35.45,3L35.04,6.07L35.02,6.06L33.9,2.79L32.91,2.66L32.35,6.75L33.13,6.86L33.54,3.8Z" style="fill:rgb(179,32,37);fill-rule:nonzero;"/>
        <g transform="matrix(0.299707,-0.954031,0.954031,0.299707,21.38,40.87)">
            <rect x="36.47" y="5.46" width="4.13" height="0.82" style="fill:rgb(179,32,37);"/>
        </g>
        <path d="M45.04,6.46L44.31,6.1L41.93,8.53L41.92,8.52L42.45,5.16L41.67,4.76L41.05,9.08L41.95,9.53L45.04,6.46Z" style="fill:rgb(179,32,37);fill-rule:nonzero;"/>
        <path d="M46.38,12.55L46.78,12.04L45.52,11.05L46.24,10.14L47.38,11.03L47.78,10.52L46.64,9.63L47.27,8.82L48.52,9.8L48.92,9.29L47.02,7.81L44.48,11.06L46.38,12.55Z" style="fill:rgb(179,32,37);fill-rule:nonzero;"/>
        <path d="M47.72,13.8L48.26,14.42L49.55,13.29L49.72,13.49C49.924,13.669 49.946,13.984 49.77,14.19L49.12,15.41L49.72,16.1L50.5,14.54C50.611,14.352 50.611,14.118 50.5,13.93C50.869,14.238 51.411,14.238 51.78,13.93C52.64,13.17 51.93,12.4 51.35,11.74L50.77,11.08L47.72,13.8ZM51.05,12.32C51.32,12.62 51.59,13 51.22,13.32C50.85,13.64 50.48,13.32 50.22,13.05L50,12.85L50.83,12.11L51.05,12.32Z" style="fill:rgb(179,32,37);fill-rule:nonzero;"/>
        <path d="M51.64,18C51.471,17.694 51.385,17.349 51.39,17L50.71,17.32C50.791,17.672 50.926,18.009 51.11,18.32C51.289,18.838 51.781,19.188 52.329,19.188C52.566,19.188 52.798,19.123 53,19C54.19,18.3 53,16.91 53.64,16.55C53.729,16.495 53.832,16.467 53.937,16.467C54.164,16.467 54.37,16.602 54.46,16.81C54.603,17.056 54.695,17.328 54.73,17.61L55.35,17.33C55.276,17.009 55.151,16.702 54.98,16.42C54.786,15.956 54.33,15.653 53.827,15.653C53.595,15.653 53.367,15.718 53.17,15.84C51.99,16.54 53.17,17.91 52.5,18.31C52.413,18.352 52.318,18.374 52.222,18.374C51.972,18.374 51.744,18.227 51.64,18Z" style="fill:rgb(179,32,37);fill-rule:nonzero;"/>
        <g transform="matrix(0.926002,-0.377518,0.377518,0.926002,-3.82,22.2)">
            <rect x="52.67" y="20.43" width="4.13" height="0.82" style="fill:rgb(179,32,37);"/>
        </g>
        <path d="M53.83,24.61L54.02,25.4L57.4,24.57L57.68,25.71L58.31,25.55L57.56,22.49L56.92,22.64L57.2,23.77L53.83,24.61Z" style="fill:rgb(179,32,37);fill-rule:nonzero;"/>
        <path d="M54.58,29.19L54.63,30L56.26,29.92L58.84,31.24L58.79,30.37L57,29.49L58.68,28.43L58.63,27.48L56.21,29.1L54.58,29.19Z" style="fill:rgb(179,32,37);fill-rule:nonzero;"/>
        <path d="M5.63,39.02L6.25,38.84L5.86,37.5L6.84,37.22L7.25,38.63L7.87,38.44L7.24,36.24L3.27,37.39L3.5,38.18L5.24,37.68L5.63,39.02Z" style="fill:rgb(179,32,37);fill-rule:nonzero;"/>
        <path d="M9.18,41.31C8.88,40.602 8.182,40.139 7.412,40.139C7.046,40.139 6.688,40.243 6.38,40.44C5.629,40.722 5.128,41.444 5.128,42.247C5.128,42.581 5.215,42.909 5.38,43.2C5.686,43.91 6.388,44.371 7.161,44.371C7.529,44.371 7.889,44.267 8.2,44.07C8.943,43.783 9.435,43.065 9.435,42.269C9.435,41.933 9.347,41.602 9.18,41.31ZM7.78,43.31C7.562,43.471 7.297,43.558 7.026,43.558C6.576,43.558 6.158,43.319 5.93,42.93C5.868,42.778 5.837,42.616 5.837,42.452C5.837,41.886 6.215,41.385 6.76,41.23C6.975,41.08 7.231,40.999 7.493,40.999C7.942,40.999 8.359,41.235 8.59,41.62C8.646,41.766 8.675,41.921 8.675,42.077C8.675,42.632 8.311,43.126 7.78,43.29L7.78,43.31Z" style="fill:rgb(179,32,37);fill-rule:nonzero;"/>
        <path d="M12.51,46.55L10.64,48C10.09,48.44 9.59,48.55 9.2,48.05C8.81,47.55 9.03,47.05 9.58,46.66L11.45,45.18L10.94,44.53L8.86,46.2C8.443,46.464 8.189,46.924 8.189,47.417C8.189,47.832 8.368,48.227 8.68,48.5C8.932,48.962 9.418,49.25 9.944,49.25C10.32,49.25 10.681,49.103 10.95,48.84L13,47.2L12.51,46.55Z" style="fill:rgb(179,32,37);fill-rule:nonzero;"/>
        <path d="M16.33,50.16L14.38,52.55L14.37,52.54L15.11,49.16L14.32,48.52L11.71,51.71L12.32,52.21L14.27,49.82L14.29,49.83L13.55,53.22L14.33,53.86L16.95,50.66L16.33,50.16Z" style="fill:rgb(179,32,37);fill-rule:nonzero;"/>
        <path d="M19.52,52.18L18.52,51.68L16.67,55.37L17.67,55.87C18.8,56.44 19.98,56.56 20.67,55.1C21.36,53.64 20.65,52.75 19.52,52.18ZM20,54.71C19.781,55.198 19.294,55.514 18.759,55.514C18.548,55.514 18.339,55.465 18.15,55.37L17.74,55.16L19,52.63L19.41,52.84C19.874,53.066 20.17,53.538 20.17,54.054C20.17,54.284 20.111,54.509 20,54.71Z" style="fill:rgb(179,32,37);fill-rule:nonzero;"/>
        <path d="M22.23,57.79L24.59,58.42L24.76,57.79L23.2,57.38L23.49,56.25L24.91,56.63L25.08,56L23.66,55.63L23.92,54.64L25.47,55.06L25.64,54.43L23.29,53.8L22.23,57.79Z" style="fill:rgb(179,32,37);fill-rule:nonzero;"/>
        <path d="M28.58,54.82L27.46,54.76L27.23,58.89L28.35,58.95C29.61,59.02 30.75,58.66 30.84,57.02C30.93,55.38 29.84,54.89 28.58,54.82ZM28.58,58.3L28.12,58.3L28.28,55.48L28.74,55.48C29.422,55.594 29.926,56.189 29.926,56.881C29.926,57.643 29.312,58.277 28.55,58.3L28.58,58.3Z" style="fill:rgb(179,32,37);fill-rule:nonzero;"/>
        <path d="M35,54.45L34.3,58.83L35.14,58.65L35.29,57.65L37,57.3L37.54,58.15L38.4,58L35.95,54.3L35,54.45ZM35.42,57L35.64,55.21L36.58,56.75L35.42,57Z" style="fill:rgb(179,32,37);fill-rule:nonzero;"/>
        <g transform="matrix(0.94,-0.34,0.34,0.94,-17.07,17.05)">
            <rect x="39.44" y="56.55" width="0.82" height="0.83" style="fill:rgb(179,32,37);"/>
        </g>
        <path d="M41.36,52.26L40.36,52.8L42.36,56.43L43.36,55.89C44.47,55.29 45.25,54.39 44.47,52.94C43.69,51.49 42.47,51.66 41.36,52.26ZM43.16,55.26L42.76,55.48L41.4,53L41.8,52.78C41.969,52.712 42.149,52.677 42.331,52.677C43.11,52.677 43.751,53.318 43.751,54.097C43.751,54.554 43.531,54.983 43.16,55.25L43.16,55.26Z" style="fill:rgb(179,32,37);fill-rule:nonzero;"/>
        <g transform="matrix(0.822144,-0.56928,0.56928,0.822144,-22.34,35.86)">
            <rect x="45.79" y="53.25" width="0.83" height="0.83" style="fill:rgb(179,32,37);"/>
        </g>
        <path d="M47.34,47.91L47.16,49.45L47.83,49.55L47.93,48.65L50.17,50.92L50.76,50.34L47.85,47.4L47.34,47.91Z" style="fill:rgb(179,32,37);fill-rule:nonzero;"/>
        <path d="M53.11,45.64C52.709,45.357 52.171,45.357 51.77,45.64C51.884,45.217 51.729,44.765 51.38,44.5C51.206,44.402 51.01,44.351 50.811,44.351C50.361,44.351 49.95,44.612 49.76,45.02C49.541,45.231 49.416,45.523 49.416,45.827C49.416,46.178 49.581,46.508 49.86,46.72C50.216,46.959 50.684,46.959 51.04,46.72C50.871,47.182 51.026,47.705 51.42,48C51.629,48.149 51.879,48.229 52.135,48.229C52.604,48.229 53.034,47.961 53.24,47.54C53.498,47.312 53.646,46.984 53.646,46.64C53.646,46.238 53.445,45.862 53.11,45.64ZM51.23,45.94C50.994,46.171 50.638,46.231 50.34,46.09C50.234,45.988 50.173,45.847 50.173,45.7C50.173,45.553 50.234,45.412 50.34,45.31C50.428,45.173 50.58,45.091 50.743,45.091C50.86,45.091 50.972,45.133 51.06,45.21C51.251,45.401 51.317,45.685 51.23,45.94ZM52.74,47.13C52.628,47.292 52.443,47.39 52.246,47.39C52.122,47.39 52.001,47.351 51.9,47.28C51.653,47.082 51.557,46.749 51.66,46.45C51.923,46.183 52.337,46.13 52.66,46.32C52.802,46.421 52.887,46.585 52.887,46.76C52.887,46.897 52.834,47.03 52.74,47.13Z" style="fill:rgb(179,32,37);fill-rule:nonzero;"/>
        <path d="M55.15,41.31C54.966,41.191 54.751,41.128 54.532,41.128C54.073,41.128 53.657,41.406 53.48,41.83C53.317,42.108 53.317,42.452 53.48,42.73C53.018,42.582 52.702,42.149 52.702,41.664C52.702,41.533 52.725,41.403 52.77,41.28C52.884,41.059 53.044,40.864 53.24,40.71L52.69,40.31C52.477,40.515 52.302,40.755 52.17,41.02C51.57,42.21 52.51,43.08 53.52,43.58C54.53,44.08 55.35,44.21 55.87,43.19C55.983,42.993 56.042,42.771 56.042,42.544C56.042,41.985 55.681,41.486 55.15,41.31ZM55.32,42.92C55.21,43.113 55.004,43.233 54.781,43.233C54.647,43.233 54.517,43.19 54.41,43.11C54.142,43.028 53.958,42.779 53.958,42.498C53.958,42.42 53.972,42.343 54,42.27C54.12,42.086 54.325,41.976 54.544,41.976C54.687,41.976 54.826,42.023 54.94,42.11C55.192,42.198 55.362,42.438 55.362,42.705C55.362,42.782 55.348,42.858 55.32,42.93L55.32,42.92Z" style="fill:rgb(179,32,37);fill-rule:nonzero;"/>
        <path d="M56.75,36.84C56.602,36.78 56.444,36.749 56.285,36.749C55.703,36.749 55.197,37.161 55.08,37.73C55.044,37.851 55.021,37.975 55.01,38.1L54.17,37.83L54.62,36.31L54,36.14L53.32,38.41L55.44,39.08C55.434,38.83 55.468,38.58 55.54,38.34C55.572,37.931 55.917,37.611 56.328,37.611C56.399,37.611 56.471,37.621 56.54,37.64C56.855,37.744 57.069,38.04 57.069,38.371C57.069,38.481 57.045,38.59 57,38.69C56.907,38.968 56.757,39.223 56.56,39.44L57.26,39.67C57.422,39.388 57.553,39.09 57.65,38.78C57.733,38.597 57.776,38.398 57.776,38.197C57.776,37.568 57.355,37.011 56.75,36.84Z" style="fill:rgb(179,32,37);fill-rule:nonzero;"/>
    </g>
</svg>
